<svg version="1.1" id="Layer_1" xmlns="http://www.w3.org/2000/svg" xmlns:xlink="http://www.w3.org/1999/xlink" x="0px" y="0px"
	 width="100%" viewBox="0 0 183 242" enable-background="new 0 0 183 242" xml:space="preserve">
<path fill="#FFFEFE" opacity="1.000000" stroke="none" 
	d="
M1.000000,240.000000 
	C1.000000,160.386093 1.000000,80.772179 1.000000,1.079134 
	C61.906757,1.079134 122.813652,1.079134 184.000000,1.079134 
	C184.000000,80.354012 184.000000,159.708344 183.617035,239.184219 
	C181.475067,239.537445 179.716187,239.970612 177.957031,239.971649 
	C118.971367,240.006561 59.985683,240.000275 1.000000,240.000000 
M137.500000,86.887932 
	C148.930573,86.887932 160.361160,86.887932 171.837006,86.887932 
	C171.837006,62.603539 171.837006,39.015095 171.837006,15.371724 
	C171.142303,15.202496 170.679092,14.990662 170.216049,14.990986 
	C138.559586,15.013143 106.889809,14.510147 75.251549,15.287841 
	C55.403664,15.775718 38.271595,23.535744 26.354204,40.264893 
	C15.808991,55.067837 10.868221,71.998817 10.249849,89.894852 
	C9.559813,109.864967 9.922606,129.879501 10.181991,149.870087 
	C10.274294,156.983856 10.869001,164.184662 12.175823,171.169617 
	C14.902257,185.742355 20.093878,199.386261 30.198912,210.631134 
	C43.359291,225.275940 60.556164,230.649521 79.526558,230.851990 
	C109.180946,231.168503 138.841034,230.953857 168.498718,230.941742 
	C169.606064,230.941284 170.713318,230.704819 171.859924,230.573837 
	C171.859924,206.692581 171.859924,183.100555 171.859924,159.004364 
	C169.846603,159.004364 168.061234,159.004364 166.275879,159.004349 
	C132.785995,159.004074 99.295914,159.057968 65.806488,158.933762 
	C61.697891,158.918533 57.432487,158.491058 53.513981,157.329514 
	C36.854099,152.391129 25.811016,135.081314 28.284622,118.344406 
	C30.936659,100.400215 45.650944,87.088120 63.522503,86.951622 
	C87.847076,86.765839 112.174057,86.894211 137.500000,86.887932 
z"/>
<path fill="#000000" opacity="1.000000" stroke="none" 
	d="
M1.000000,240.500000 
	C59.985683,240.000275 118.971367,240.006561 177.957031,239.971649 
	C179.716187,239.970612 181.475067,239.537445 183.617035,239.652878 
	C184.000000,240.997345 184.000000,241.994705 184.000000,242.996033 
	C124.161804,243.000000 64.323586,243.010239 4.485501,242.927551 
	C3.272619,242.925873 0.517525,244.532150 1.000000,240.500000 
z"/>
<path fill="#EA553F" opacity="1.000000" stroke="none" 
	d="
M137.000000,86.887901 
	C112.174057,86.894211 87.847076,86.765839 63.522503,86.951622 
	C45.650944,87.088120 30.936659,100.400215 28.284622,118.344406 
	C25.811016,135.081314 36.854099,152.391129 53.513981,157.329514 
	C57.432487,158.491058 61.697891,158.918533 65.806488,158.933762 
	C99.295914,159.057968 132.785995,159.004074 166.275879,159.004349 
	C168.061234,159.004364 169.846603,159.004364 171.859924,159.004364 
	C171.859924,183.100555 171.859924,206.692581 171.859924,230.573837 
	C170.713318,230.704819 169.606064,230.941284 168.498718,230.941742 
	C138.841034,230.953857 109.180946,231.168503 79.526558,230.851990 
	C60.556164,230.649521 43.359291,225.275940 30.198912,210.631134 
	C20.093878,199.386261 14.902257,185.742355 12.175823,171.169617 
	C10.869001,164.184662 10.274294,156.983856 10.181991,149.870087 
	C9.922606,129.879501 9.559813,109.864967 10.249849,89.894852 
	C10.868221,71.998817 15.808991,55.067837 26.354204,40.264893 
	C38.271595,23.535744 55.403664,15.775718 75.251549,15.287841 
	C106.889809,14.510147 138.559586,15.013143 170.216049,14.990986 
	C170.679092,14.990662 171.142303,15.202496 171.837006,15.371724 
	C171.837006,39.015095 171.837006,62.603539 171.837006,86.887932 
	C160.361160,86.887932 148.930573,86.887932 137.000000,86.887901 
z"/>
</svg>